<?xml version="1.0" encoding="utf-8" standalone="no"?>
<!DOCTYPE svg PUBLIC "-//W3C//DTD SVG 1.1//EN"
  "http://www.w3.org/Graphics/SVG/1.1/DTD/svg11.dtd">
<!-- Created with matplotlib (http://matplotlib.org/) -->
<svg height="345pt" version="1.1" viewBox="0 0 460 345" width="460pt" xmlns="http://www.w3.org/2000/svg" xmlns:xlink="http://www.w3.org/1999/xlink">
 <defs>
  <style type="text/css">
*{stroke-linecap:butt;stroke-linejoin:round;}
  </style>
 </defs>
 <g id="figure_1">
  <g id="patch_1">
   <path d="M 0 345.6 
L 460.8 345.6 
L 460.8 0 
L 0 0 
z
" style="fill:#ffffff;"/>
  </g>
  <g id="axes_1">
   <g id="patch_2">
    <path d="M 57.6 307.584 
L 414.72 307.584 
L 414.72 41.472 
L 57.6 41.472 
z
" style="fill:#e5e5e5;"/>
   </g>
   <g id="matplotlib.axis_1">
    <g id="xtick_1">
     <g id="line2d_1">
      <path clip-path="url(#p3f9e69fa88)" d="M 57.6 307.584 
L 57.6 41.472 
" style="fill:none;stroke:#ffffff;stroke-linecap:square;stroke-width:0.8;"/>
     </g>
     <g id="line2d_2">
      <defs>
       <path d="M 0 0 
L 0 3.5 
" id="mb412e2f98a" style="stroke:#555555;stroke-width:0.8;"/>
      </defs>
      <g>
       <use style="fill:#555555;stroke:#555555;stroke-width:0.8;" x="57.6" xlink:href="#mb412e2f98a" y="307.584"/>
      </g>
     </g>
     <g id="text_1">
      <!-- 0.0 -->
      <defs>
       <path d="M 4.4375 36.328125 
Q 4.4375 56.34375 11.078125 66.625 
Q 17.71875 76.90625 30.328125 76.90625 
Q 54.34375 76.90625 54.34375 38.140625 
Q 54.34375 19 47.578125 8.859375 
Q 40.828125 -1.265625 28.609375 -1.265625 
Q 17.09375 -1.265625 10.765625 8.34375 
Q 4.4375 17.96875 4.4375 36.328125 
z
M 14.203125 36.765625 
Q 14.203125 6.640625 29.5 6.640625 
Q 44.53125 6.640625 44.53125 37.25 
Q 44.53125 68.953125 29.78125 68.953125 
Q 14.203125 68.953125 14.203125 36.765625 
z
" id="MicrosoftYaHei-30"/>
       <path d="M 5.8125 5.03125 
Q 5.8125 7.671875 7.609375 9.46875 
Q 9.421875 11.28125 12.109375 11.28125 
Q 14.84375 11.28125 16.640625 9.453125 
Q 18.453125 7.625 18.453125 5.03125 
Q 18.453125 2.484375 16.640625 0.65625 
Q 14.84375 -1.171875 12.0625 -1.171875 
Q 9.375 -1.171875 7.59375 0.65625 
Q 5.8125 2.484375 5.8125 5.03125 
z
" id="MicrosoftYaHei-2e"/>
      </defs>
      <g style="fill:#555555;" transform="translate(50.532031 322.57775)scale(0.1 -0.1)">
       <use xlink:href="#MicrosoftYaHei-30"/>
       <use x="58.642578" xlink:href="#MicrosoftYaHei-2e"/>
       <use x="82.714844" xlink:href="#MicrosoftYaHei-30"/>
      </g>
     </g>
    </g>
    <g id="xtick_2">
     <g id="line2d_3">
      <path clip-path="url(#p3f9e69fa88)" d="M 129.024 307.584 
L 129.024 41.472 
" style="fill:none;stroke:#ffffff;stroke-linecap:square;stroke-width:0.8;"/>
     </g>
     <g id="line2d_4">
      <g>
       <use style="fill:#555555;stroke:#555555;stroke-width:0.8;" x="129.024" xlink:href="#mb412e2f98a" y="307.584"/>
      </g>
     </g>
     <g id="text_2">
      <!-- 0.2 -->
      <defs>
       <path d="M 51.171875 0 
L 5.171875 0 
L 5.171875 8.296875 
L 27.15625 30.21875 
Q 36.234375 39.3125 39.3125 44.609375 
Q 42.390625 49.90625 42.390625 55.5625 
Q 42.390625 62.015625 38.765625 65.453125 
Q 35.15625 68.890625 28.328125 68.890625 
Q 18.21875 68.890625 9.03125 60.296875 
L 9.03125 70.015625 
Q 17.96875 76.90625 29.828125 76.90625 
Q 40.046875 76.90625 45.953125 71.390625 
Q 51.859375 65.875 51.859375 56.546875 
Q 51.859375 49.515625 48.0625 42.75 
Q 44.28125 35.984375 33.734375 25.53125 
L 16.5 8.6875 
L 16.5 8.5 
L 51.171875 8.5 
z
" id="MicrosoftYaHei-32"/>
      </defs>
      <g style="fill:#555555;" transform="translate(121.956031 322.57775)scale(0.1 -0.1)">
       <use xlink:href="#MicrosoftYaHei-30"/>
       <use x="58.642578" xlink:href="#MicrosoftYaHei-2e"/>
       <use x="82.714844" xlink:href="#MicrosoftYaHei-32"/>
      </g>
     </g>
    </g>
    <g id="xtick_3">
     <g id="line2d_5">
      <path clip-path="url(#p3f9e69fa88)" d="M 200.448 307.584 
L 200.448 41.472 
" style="fill:none;stroke:#ffffff;stroke-linecap:square;stroke-width:0.8;"/>
     </g>
     <g id="line2d_6">
      <g>
       <use style="fill:#555555;stroke:#555555;stroke-width:0.8;" x="200.448" xlink:href="#mb412e2f98a" y="307.584"/>
      </g>
     </g>
     <g id="text_3">
      <!-- 0.4 -->
      <defs>
       <path d="M 55.078125 19.625 
L 45.40625 19.625 
L 45.40625 0 
L 36.140625 0 
L 36.140625 19.625 
L 0.875 19.625 
L 0.875 25.828125 
L 34.328125 75.640625 
L 45.40625 75.640625 
L 45.40625 27.203125 
L 55.078125 27.203125 
z
M 36.140625 27.203125 
L 36.140625 58.890625 
Q 36.140625 62.25 36.328125 66.65625 
L 36.140625 66.65625 
Q 35.453125 64.796875 33.25 60.84375 
L 10.75 27.203125 
z
" id="MicrosoftYaHei-34"/>
      </defs>
      <g style="fill:#555555;" transform="translate(193.380031 322.57775)scale(0.1 -0.1)">
       <use xlink:href="#MicrosoftYaHei-30"/>
       <use x="58.642578" xlink:href="#MicrosoftYaHei-2e"/>
       <use x="82.714844" xlink:href="#MicrosoftYaHei-34"/>
      </g>
     </g>
    </g>
    <g id="xtick_4">
     <g id="line2d_7">
      <path clip-path="url(#p3f9e69fa88)" d="M 271.872 307.584 
L 271.872 41.472 
" style="fill:none;stroke:#ffffff;stroke-linecap:square;stroke-width:0.8;"/>
     </g>
     <g id="line2d_8">
      <g>
       <use style="fill:#555555;stroke:#555555;stroke-width:0.8;" x="271.872" xlink:href="#mb412e2f98a" y="307.584"/>
      </g>
     </g>
     <g id="text_4">
      <!-- 0.6 -->
      <defs>
       <path d="M 49.703125 65.921875 
Q 43.796875 68.953125 37.359375 68.953125 
Q 27.546875 68.953125 21.578125 60.40625 
Q 15.625 51.859375 15.53125 37.0625 
L 15.765625 37.0625 
Q 21.140625 47.46875 32.90625 47.46875 
Q 42.71875 47.46875 48.578125 41.0625 
Q 54.4375 34.671875 54.4375 24.078125 
Q 54.4375 12.984375 47.671875 5.859375 
Q 40.921875 -1.265625 30.421875 -1.265625 
Q 18.890625 -1.265625 12.328125 7.734375 
Q 5.765625 16.75 5.765625 33.296875 
Q 5.765625 53.328125 14.375 65.109375 
Q 23 76.90625 37.0625 76.90625 
Q 45.125 76.90625 49.703125 74.703125 
z
M 16.109375 24.75 
Q 16.109375 17.28125 20.09375 11.953125 
Q 24.078125 6.640625 30.671875 6.640625 
Q 36.921875 6.640625 40.828125 11.234375 
Q 44.734375 15.828125 44.734375 23.046875 
Q 44.734375 30.859375 41.046875 35.203125 
Q 37.359375 39.546875 30.5625 39.546875 
Q 24.125 39.546875 20.109375 35.15625 
Q 16.109375 30.765625 16.109375 24.75 
z
" id="MicrosoftYaHei-36"/>
      </defs>
      <g style="fill:#555555;" transform="translate(264.804031 322.57775)scale(0.1 -0.1)">
       <use xlink:href="#MicrosoftYaHei-30"/>
       <use x="58.642578" xlink:href="#MicrosoftYaHei-2e"/>
       <use x="82.714844" xlink:href="#MicrosoftYaHei-36"/>
      </g>
     </g>
    </g>
    <g id="xtick_5">
     <g id="line2d_9">
      <path clip-path="url(#p3f9e69fa88)" d="M 343.296 307.584 
L 343.296 41.472 
" style="fill:none;stroke:#ffffff;stroke-linecap:square;stroke-width:0.8;"/>
     </g>
     <g id="line2d_10">
      <g>
       <use style="fill:#555555;stroke:#555555;stroke-width:0.8;" x="343.296" xlink:href="#mb412e2f98a" y="307.584"/>
      </g>
     </g>
     <g id="text_5">
      <!-- 0.8 -->
      <defs>
       <path d="M 21.390625 39.796875 
Q 7.859375 46.09375 7.859375 58.0625 
Q 7.859375 66.40625 14.203125 71.65625 
Q 20.5625 76.90625 30.421875 76.90625 
Q 39.453125 76.90625 45.3125 71.96875 
Q 51.171875 67.046875 51.171875 59.234375 
Q 51.171875 46.625 37.0625 39.84375 
L 37.0625 39.65625 
Q 53.609375 33.6875 53.609375 19.34375 
Q 53.609375 9.90625 46.796875 4.3125 
Q 39.984375 -1.265625 27.78125 -1.265625 
Q 17.78125 -1.265625 11.46875 4.25 
Q 5.171875 9.765625 5.171875 18.5625 
Q 5.171875 33.015625 21.390625 39.59375 
z
M 41.5 58.109375 
Q 41.5 63.1875 38.328125 66.109375 
Q 35.15625 69.046875 29.734375 69.046875 
Q 24.65625 69.046875 21.09375 65.984375 
Q 17.53125 62.9375 17.53125 58.203125 
Q 17.53125 48.734375 29.390625 43.796875 
Q 41.5 48.828125 41.5 58.109375 
z
M 28.8125 35.25 
Q 14.796875 29.59375 14.796875 19.046875 
Q 14.796875 13.578125 18.890625 10.0625 
Q 23 6.546875 29.59375 6.546875 
Q 35.984375 6.546875 39.984375 10.03125 
Q 44 13.53125 44 18.75 
Q 44 29.734375 28.8125 35.25 
z
" id="MicrosoftYaHei-38"/>
      </defs>
      <g style="fill:#555555;" transform="translate(336.228031 322.57775)scale(0.1 -0.1)">
       <use xlink:href="#MicrosoftYaHei-30"/>
       <use x="58.642578" xlink:href="#MicrosoftYaHei-2e"/>
       <use x="82.714844" xlink:href="#MicrosoftYaHei-38"/>
      </g>
     </g>
    </g>
    <g id="xtick_6">
     <g id="line2d_11">
      <path clip-path="url(#p3f9e69fa88)" d="M 414.72 307.584 
L 414.72 41.472 
" style="fill:none;stroke:#ffffff;stroke-linecap:square;stroke-width:0.8;"/>
     </g>
     <g id="line2d_12">
      <g>
       <use style="fill:#555555;stroke:#555555;stroke-width:0.8;" x="414.72" xlink:href="#mb412e2f98a" y="307.584"/>
      </g>
     </g>
     <g id="text_6">
      <!-- 1.0 -->
      <defs>
       <path d="M 52.59375 0 
L 9.234375 0 
L 9.234375 8.25 
L 26.171875 8.25 
L 26.171875 65.671875 
L 8.796875 60.640625 
L 8.796875 69.4375 
L 35.6875 77.25 
L 35.6875 8.25 
L 52.59375 8.25 
z
" id="MicrosoftYaHei-31"/>
      </defs>
      <g style="fill:#555555;" transform="translate(407.652031 322.57775)scale(0.1 -0.1)">
       <use xlink:href="#MicrosoftYaHei-31"/>
       <use x="58.642578" xlink:href="#MicrosoftYaHei-2e"/>
       <use x="82.714844" xlink:href="#MicrosoftYaHei-30"/>
      </g>
     </g>
    </g>
    <g id="text_7">
     <!-- Fall-out -->
     <defs>
      <path d="M 48.734375 66.9375 
L 19.53125 66.9375 
L 19.53125 41.65625 
L 46.578125 41.65625 
L 46.578125 33.0625 
L 19.53125 33.0625 
L 19.53125 0 
L 9.765625 0 
L 9.765625 75.640625 
L 48.734375 75.640625 
z
" id="MicrosoftYaHei-46"/>
      <path d="M 9.8125 50.25 
Q 17.875 55.28125 28.421875 55.28125 
Q 47.953125 55.28125 47.953125 34.765625 
L 47.953125 0 
L 38.484375 0 
L 38.484375 8.34375 
L 38.234375 8.34375 
Q 32.625 -1.265625 21.6875 -1.265625 
Q 13.8125 -1.265625 9.171875 2.984375 
Q 4.546875 7.234375 4.546875 14.453125 
Q 4.546875 29.59375 22.46875 32.078125 
L 38.484375 34.328125 
Q 38.484375 47.5625 27.546875 47.5625 
Q 17.828125 47.5625 9.8125 41.015625 
z
M 25.828125 25.390625 
Q 19.1875 24.515625 16.671875 22.0625 
Q 14.15625 19.625 14.15625 15.234375 
Q 14.15625 11.375 16.890625 8.9375 
Q 19.625 6.5 24.125 6.5 
Q 30.375 6.5 34.421875 10.890625 
Q 38.484375 15.28125 38.484375 21.921875 
L 38.484375 27.09375 
z
" id="MicrosoftYaHei-61"/>
      <path d="M 8.5 0 
L 8.5 79.9375 
L 18.0625 79.9375 
L 18.0625 0 
z
" id="MicrosoftYaHei-6c"/>
      <path d="M 36.375 26.265625 
L 7.625 26.265625 
L 7.625 33.640625 
L 36.375 33.640625 
z
" id="MicrosoftYaHei-2d"/>
      <path d="M 4.9375 26.421875 
Q 4.9375 39.796875 12.40625 47.53125 
Q 19.875 55.28125 32.671875 55.28125 
Q 44.828125 55.28125 51.734375 47.828125 
Q 58.640625 40.375 58.640625 27.25 
Q 58.640625 14.453125 51.265625 6.59375 
Q 43.890625 -1.265625 31.5 -1.265625 
Q 19.390625 -1.265625 12.15625 6.34375 
Q 4.9375 13.96875 4.9375 26.421875 
z
M 14.703125 26.703125 
Q 14.703125 17.390625 19.40625 12.015625 
Q 24.125 6.640625 32.078125 6.640625 
Q 40.28125 6.640625 44.578125 11.890625 
Q 48.875 17.140625 48.875 26.953125 
Q 48.875 36.8125 44.578125 42.078125 
Q 40.28125 47.359375 32.078125 47.359375 
Q 24.03125 47.359375 19.359375 41.84375 
Q 14.703125 36.328125 14.703125 26.703125 
z
" id="MicrosoftYaHei-6f"/>
      <path d="M 53.125 0 
L 43.5 0 
L 43.5 8.5 
L 43.3125 8.5 
Q 37.890625 -1.265625 26.65625 -1.265625 
Q 7.46875 -1.265625 7.46875 21.6875 
L 7.46875 54 
L 16.9375 54 
L 16.9375 23.09375 
Q 16.9375 6.640625 29.546875 6.640625 
Q 35.796875 6.640625 39.640625 11.25 
Q 43.5 15.875 43.5 22.90625 
L 43.5 54 
L 53.125 54 
z
" id="MicrosoftYaHei-75"/>
      <path d="M 34.46875 0.53125 
Q 31.34375 -1.171875 26.03125 -1.171875 
Q 11.53125 -1.171875 11.53125 14.890625 
L 11.53125 46.09375 
L 2.25 46.09375 
L 2.25 54 
L 11.53125 54 
L 11.53125 67 
L 21.046875 70.015625 
L 21.046875 54 
L 34.46875 54 
L 34.46875 46.09375 
L 21.046875 46.09375 
L 21.046875 16.609375 
Q 21.046875 11.28125 22.84375 8.984375 
Q 24.65625 6.6875 28.859375 6.6875 
Q 32.078125 6.6875 34.46875 8.5 
z
" id="MicrosoftYaHei-74"/>
     </defs>
     <g style="fill:#555555;" transform="translate(214.123125 338.656187)scale(0.12 -0.12)">
      <use xlink:href="#MicrosoftYaHei-46"/>
      <use x="53.0625" xlink:href="#MicrosoftYaHei-61"/>
      <use x="108.335938" xlink:href="#MicrosoftYaHei-6c"/>
      <use x="134.947266" xlink:href="#MicrosoftYaHei-6c"/>
      <use x="161.558594" xlink:href="#MicrosoftYaHei-2d"/>
      <use x="204.820312" xlink:href="#MicrosoftYaHei-6f"/>
      <use x="268.394531" xlink:href="#MicrosoftYaHei-75"/>
      <use x="330.015625" xlink:href="#MicrosoftYaHei-74"/>
     </g>
    </g>
   </g>
   <g id="matplotlib.axis_2">
    <g id="ytick_1">
     <g id="line2d_13">
      <path clip-path="url(#p3f9e69fa88)" d="M 57.6 307.584 
L 414.72 307.584 
" style="fill:none;stroke:#ffffff;stroke-linecap:square;stroke-width:0.8;"/>
     </g>
     <g id="line2d_14">
      <defs>
       <path d="M 0 0 
L -3.5 0 
" id="m10aa67c9b1" style="stroke:#555555;stroke-width:0.8;"/>
      </defs>
      <g>
       <use style="fill:#555555;stroke:#555555;stroke-width:0.8;" x="57.6" xlink:href="#m10aa67c9b1" y="307.584"/>
      </g>
     </g>
     <g id="text_8">
      <!-- 0.0 -->
      <g style="fill:#555555;" transform="translate(36.464062 311.580875)scale(0.1 -0.1)">
       <use xlink:href="#MicrosoftYaHei-30"/>
       <use x="58.642578" xlink:href="#MicrosoftYaHei-2e"/>
       <use x="82.714844" xlink:href="#MicrosoftYaHei-30"/>
      </g>
     </g>
    </g>
    <g id="ytick_2">
     <g id="line2d_15">
      <path clip-path="url(#p3f9e69fa88)" d="M 57.6 254.3616 
L 414.72 254.3616 
" style="fill:none;stroke:#ffffff;stroke-linecap:square;stroke-width:0.8;"/>
     </g>
     <g id="line2d_16">
      <g>
       <use style="fill:#555555;stroke:#555555;stroke-width:0.8;" x="57.6" xlink:href="#m10aa67c9b1" y="254.3616"/>
      </g>
     </g>
     <g id="text_9">
      <!-- 0.2 -->
      <g style="fill:#555555;" transform="translate(36.464062 258.358475)scale(0.1 -0.1)">
       <use xlink:href="#MicrosoftYaHei-30"/>
       <use x="58.642578" xlink:href="#MicrosoftYaHei-2e"/>
       <use x="82.714844" xlink:href="#MicrosoftYaHei-32"/>
      </g>
     </g>
    </g>
    <g id="ytick_3">
     <g id="line2d_17">
      <path clip-path="url(#p3f9e69fa88)" d="M 57.6 201.1392 
L 414.72 201.1392 
" style="fill:none;stroke:#ffffff;stroke-linecap:square;stroke-width:0.8;"/>
     </g>
     <g id="line2d_18">
      <g>
       <use style="fill:#555555;stroke:#555555;stroke-width:0.8;" x="57.6" xlink:href="#m10aa67c9b1" y="201.1392"/>
      </g>
     </g>
     <g id="text_10">
      <!-- 0.4 -->
      <g style="fill:#555555;" transform="translate(36.464062 205.136075)scale(0.1 -0.1)">
       <use xlink:href="#MicrosoftYaHei-30"/>
       <use x="58.642578" xlink:href="#MicrosoftYaHei-2e"/>
       <use x="82.714844" xlink:href="#MicrosoftYaHei-34"/>
      </g>
     </g>
    </g>
    <g id="ytick_4">
     <g id="line2d_19">
      <path clip-path="url(#p3f9e69fa88)" d="M 57.6 147.9168 
L 414.72 147.9168 
" style="fill:none;stroke:#ffffff;stroke-linecap:square;stroke-width:0.8;"/>
     </g>
     <g id="line2d_20">
      <g>
       <use style="fill:#555555;stroke:#555555;stroke-width:0.8;" x="57.6" xlink:href="#m10aa67c9b1" y="147.9168"/>
      </g>
     </g>
     <g id="text_11">
      <!-- 0.6 -->
      <g style="fill:#555555;" transform="translate(36.464062 151.913675)scale(0.1 -0.1)">
       <use xlink:href="#MicrosoftYaHei-30"/>
       <use x="58.642578" xlink:href="#MicrosoftYaHei-2e"/>
       <use x="82.714844" xlink:href="#MicrosoftYaHei-36"/>
      </g>
     </g>
    </g>
    <g id="ytick_5">
     <g id="line2d_21">
      <path clip-path="url(#p3f9e69fa88)" d="M 57.6 94.6944 
L 414.72 94.6944 
" style="fill:none;stroke:#ffffff;stroke-linecap:square;stroke-width:0.8;"/>
     </g>
     <g id="line2d_22">
      <g>
       <use style="fill:#555555;stroke:#555555;stroke-width:0.8;" x="57.6" xlink:href="#m10aa67c9b1" y="94.6944"/>
      </g>
     </g>
     <g id="text_12">
      <!-- 0.8 -->
      <g style="fill:#555555;" transform="translate(36.464062 98.691275)scale(0.1 -0.1)">
       <use xlink:href="#MicrosoftYaHei-30"/>
       <use x="58.642578" xlink:href="#MicrosoftYaHei-2e"/>
       <use x="82.714844" xlink:href="#MicrosoftYaHei-38"/>
      </g>
     </g>
    </g>
    <g id="ytick_6">
     <g id="line2d_23">
      <path clip-path="url(#p3f9e69fa88)" d="M 57.6 41.472 
L 414.72 41.472 
" style="fill:none;stroke:#ffffff;stroke-linecap:square;stroke-width:0.8;"/>
     </g>
     <g id="line2d_24">
      <g>
       <use style="fill:#555555;stroke:#555555;stroke-width:0.8;" x="57.6" xlink:href="#m10aa67c9b1" y="41.472"/>
      </g>
     </g>
     <g id="text_13">
      <!-- 1.0 -->
      <g style="fill:#555555;" transform="translate(36.464062 45.468875)scale(0.1 -0.1)">
       <use xlink:href="#MicrosoftYaHei-31"/>
       <use x="58.642578" xlink:href="#MicrosoftYaHei-2e"/>
       <use x="82.714844" xlink:href="#MicrosoftYaHei-30"/>
      </g>
     </g>
    </g>
    <g id="text_14">
     <!-- Recall -->
     <defs>
      <path d="M 64.984375 0 
L 53.46875 0 
L 40.921875 21 
Q 37.15625 27.296875 34.03125 29.5625 
Q 30.90625 31.84375 26.5625 31.84375 
L 19.53125 31.84375 
L 19.53125 0 
L 9.765625 0 
L 9.765625 75.640625 
L 32.8125 75.640625 
Q 43.84375 75.640625 50.09375 70.3125 
Q 56.34375 64.984375 56.34375 55.421875 
Q 56.34375 39.703125 39.546875 35.015625 
L 39.546875 34.765625 
Q 42.671875 33.453125 44.9375 31 
Q 47.21875 28.5625 50.828125 22.65625 
z
M 19.53125 67.09375 
L 19.53125 40.375 
L 31.0625 40.375 
Q 37.75 40.375 41.921875 44.28125 
Q 46.09375 48.1875 46.09375 54.546875 
Q 46.09375 60.453125 42.28125 63.765625 
Q 38.484375 67.09375 31.203125 67.09375 
z
" id="MicrosoftYaHei-52"/>
      <path d="M 52.546875 24.5625 
L 14.75 24.5625 
Q 14.984375 15.921875 19.46875 11.203125 
Q 23.96875 6.5 32.03125 6.5 
Q 41.109375 6.5 48.6875 12.3125 
L 48.6875 3.765625 
Q 41.546875 -1.265625 29.78125 -1.265625 
Q 18.0625 -1.265625 11.5 6.15625 
Q 4.9375 13.578125 4.9375 26.765625 
Q 4.9375 39.15625 12.140625 47.21875 
Q 19.34375 55.28125 30.03125 55.28125 
Q 40.625 55.28125 46.578125 48.46875 
Q 52.546875 41.65625 52.546875 29.390625 
z
M 42.96875 32.234375 
Q 42.921875 39.546875 39.5 43.546875 
Q 36.078125 47.5625 29.890625 47.5625 
Q 24.171875 47.5625 20 43.3125 
Q 15.828125 39.0625 14.75 32.234375 
z
" id="MicrosoftYaHei-65"/>
      <path d="M 45.84375 2.4375 
Q 39.65625 -1.265625 30.90625 -1.265625 
Q 19.1875 -1.265625 12.0625 6.25 
Q 4.9375 13.765625 4.9375 25.734375 
Q 4.9375 39.015625 12.625 47.140625 
Q 20.3125 55.28125 33.203125 55.28125 
Q 40.625 55.28125 45.90625 52.640625 
L 45.90625 43.171875 
Q 40.1875 47.359375 33.203125 47.359375 
Q 25 47.359375 19.84375 41.671875 
Q 14.703125 35.984375 14.703125 26.515625 
Q 14.703125 17.1875 19.5625 11.90625 
Q 24.421875 6.640625 32.671875 6.640625 
Q 39.65625 6.640625 45.84375 11.234375 
z
" id="MicrosoftYaHei-63"/>
     </defs>
     <g style="fill:#555555;" transform="translate(29.480937 191.364562)rotate(-90)scale(0.12 -0.12)">
      <use xlink:href="#MicrosoftYaHei-52"/>
      <use x="65.236328" xlink:href="#MicrosoftYaHei-65"/>
      <use x="121.974609" xlink:href="#MicrosoftYaHei-63"/>
      <use x="172.121094" xlink:href="#MicrosoftYaHei-61"/>
      <use x="227.394531" xlink:href="#MicrosoftYaHei-6c"/>
      <use x="254.005859" xlink:href="#MicrosoftYaHei-6c"/>
     </g>
    </g>
   </g>
   <g id="line2d_25">
    <path clip-path="url(#p3f9e69fa88)" d="M 57.6 307.464238 
L 57.6 306.506139 
L 58.422857 306.506139 
L 58.422857 302.673743 
L 59.245714 302.673743 
L 59.245714 290.93703 
L 60.068571 290.93703 
L 60.068571 290.218455 
L 60.891429 290.218455 
L 60.891429 282.673426 
L 61.714286 282.673426 
L 61.714286 275.84697 
L 62.537143 275.84697 
L 62.537143 275.607446 
L 63.36 275.607446 
L 63.36 270.577426 
L 64.182857 270.577426 
L 64.182857 270.457663 
L 65.005714 270.457663 
L 65.005714 270.098376 
L 65.828571 270.098376 
L 65.828571 261.355723 
L 66.651429 261.355723 
L 66.651429 257.044277 
L 67.474286 257.044277 
L 67.474286 248.541149 
L 68.297143 248.541149 
L 68.297143 246.62495 
L 69.12 246.62495 
L 69.12 243.151842 
L 69.942857 243.151842 
L 69.942857 240.397307 
L 70.765714 240.397307 
L 70.765714 239.55897 
L 71.588571 239.55897 
L 71.588571 237.283485 
L 72.411429 237.283485 
L 72.411429 236.205624 
L 73.234286 236.205624 
L 73.234286 234.169663 
L 74.057143 234.169663 
L 74.057143 231.295366 
L 74.88 231.295366 
L 74.88 230.696554 
L 75.702857 230.696554 
L 75.702857 224.468911 
L 76.525714 224.468911 
L 76.525714 222.672475 
L 77.348571 222.672475 
L 77.348571 221.834139 
L 78.994286 221.834139 
L 78.994286 220.277228 
L 80.64 220.277228 
L 80.64 218.959842 
L 81.462857 218.959842 
L 81.462857 215.486733 
L 82.285714 215.486733 
L 82.285714 213.33101 
L 83.108571 213.33101 
L 83.108571 211.534574 
L 84.754286 211.534574 
L 84.754286 209.977663 
L 85.577143 209.977663 
L 85.577143 209.019564 
L 86.4 209.019564 
L 86.4 208.420752 
L 87.222857 208.420752 
L 87.222857 207.941703 
L 88.045714 207.941703 
L 88.045714 203.869782 
L 88.868571 203.869782 
L 88.868571 202.552396 
L 90.514286 202.552396 
L 90.514286 200.75596 
L 91.337143 200.75596 
L 91.337143 200.276911 
L 92.982857 200.276911 
L 92.982857 200.157149 
L 93.805714 200.157149 
L 93.805714 198.24095 
L 94.628571 198.24095 
L 94.628571 198.121188 
L 95.451429 198.121188 
L 95.451429 196.68404 
L 96.274286 196.68404 
L 96.274286 195.725941 
L 97.097143 195.725941 
L 97.097143 193.210931 
L 97.92 193.210931 
L 97.92 190.695921 
L 98.742857 190.695921 
L 98.742857 189.977347 
L 99.565714 189.977347 
L 99.565714 188.65996 
L 100.388571 188.65996 
L 100.388571 187.10305 
L 101.211429 187.10305 
L 101.211429 184.947327 
L 102.034286 184.947327 
L 102.034286 184.707802 
L 102.857143 184.707802 
L 102.857143 183.270653 
L 103.68 183.270653 
L 103.68 181.59398 
L 105.325714 181.59398 
L 105.325714 180.755644 
L 106.148571 180.755644 
L 106.148571 180.276594 
L 106.971429 180.276594 
L 106.971429 179.198733 
L 107.794286 179.198733 
L 107.794286 178.240634 
L 108.617143 178.240634 
L 108.617143 172.49204 
L 109.44 172.49204 
L 109.44 172.132752 
L 110.262857 172.132752 
L 110.262857 170.695604 
L 112.731429 170.695604 
L 112.731429 170.575842 
L 113.554286 170.575842 
L 113.554286 170.096792 
L 114.377143 170.096792 
L 114.377143 169.737505 
L 115.2 169.737505 
L 115.2 168.539881 
L 116.022857 168.539881 
L 116.022857 167.701545 
L 116.845714 167.701545 
L 116.845714 166.024871 
L 117.668571 166.024871 
L 117.668571 164.587723 
L 118.491429 164.587723 
L 118.491429 162.91105 
L 119.314286 162.91105 
L 119.314286 162.671525 
L 120.137143 162.671525 
L 120.137143 158.479842 
L 120.96 158.479842 
L 120.96 156.204356 
L 121.782857 156.204356 
L 121.782857 154.88697 
L 122.605714 154.88697 
L 122.605714 154.048634 
L 123.428571 154.048634 
L 123.428571 153.090535 
L 124.251429 153.090535 
L 124.251429 152.491723 
L 125.074286 152.491723 
L 125.074286 152.37196 
L 125.897143 152.37196 
L 125.897143 152.132436 
L 127.542857 152.132436 
L 127.542857 151.533624 
L 128.365714 151.533624 
L 128.365714 150.455762 
L 129.188571 150.455762 
L 129.188571 149.617426 
L 130.011429 149.617426 
L 130.011429 149.497663 
L 130.834286 149.497663 
L 130.834286 148.30004 
L 131.657143 148.30004 
L 131.657143 148.180277 
L 132.48 148.180277 
L 132.48 147.701228 
L 133.302857 147.701228 
L 133.302857 147.461703 
L 134.125714 147.461703 
L 134.125714 145.30598 
L 134.948571 145.30598 
L 134.948571 145.186218 
L 138.24 145.186218 
L 138.24 145.066455 
L 139.062857 145.066455 
L 139.062857 144.587406 
L 139.885714 144.587406 
L 139.885714 143.629307 
L 140.708571 143.629307 
L 140.708571 142.79097 
L 141.531429 142.79097 
L 141.531429 141.713109 
L 142.354286 141.713109 
L 142.354286 141.593347 
L 143.177143 141.593347 
L 143.177143 140.635248 
L 144 140.635248 
L 144 140.395723 
L 144.822857 140.395723 
L 144.822857 139.317861 
L 145.645714 139.317861 
L 145.645714 137.281901 
L 147.291429 137.281901 
L 147.291429 136.802851 
L 148.114286 136.802851 
L 148.114286 135.365703 
L 149.76 135.365703 
L 149.76 135.126178 
L 150.582857 135.126178 
L 150.582857 132.970455 
L 151.405714 132.970455 
L 151.405714 132.850693 
L 152.228571 132.850693 
L 152.228571 132.730931 
L 153.051429 132.730931 
L 153.051429 132.132119 
L 153.874286 132.132119 
L 153.874286 131.413545 
L 154.697143 131.413545 
L 154.697143 131.054257 
L 155.52 131.054257 
L 155.52 130.455446 
L 157.165714 130.455446 
L 157.165714 129.736871 
L 158.811429 129.736871 
L 158.811429 129.377584 
L 159.634286 129.377584 
L 159.634286 128.299723 
L 161.28 128.299723 
L 161.28 126.383525 
L 162.102857 126.383525 
L 162.102857 122.910416 
L 163.748571 122.910416 
L 163.748571 122.191842 
L 164.571429 122.191842 
L 164.571429 122.072079 
L 166.217143 122.072079 
L 166.217143 121.473267 
L 167.862857 121.473267 
L 167.862857 119.916356 
L 170.331429 119.916356 
L 170.331429 119.796594 
L 171.977143 119.796594 
L 171.977143 119.676832 
L 172.8 119.676832 
L 172.8 118.958257 
L 173.622857 118.958257 
L 173.622857 116.922297 
L 174.445714 116.922297 
L 174.445714 116.443248 
L 175.268571 116.443248 
L 175.268571 116.323485 
L 176.091429 116.323485 
L 176.091429 115.604911 
L 176.914286 115.604911 
L 176.914286 115.485149 
L 178.56 115.485149 
L 178.56 115.125861 
L 179.382857 115.125861 
L 179.382857 113.808475 
L 180.205714 113.808475 
L 180.205714 113.688713 
L 181.028571 113.688713 
L 181.028571 113.329426 
L 184.32 113.329426 
L 184.32 112.850376 
L 185.142857 112.850376 
L 185.142857 110.934178 
L 185.965714 110.934178 
L 185.965714 110.694653 
L 186.788571 110.694653 
L 186.788571 110.574891 
L 188.434286 110.574891 
L 188.434286 110.215604 
L 190.08 110.215604 
L 190.08 109.736554 
L 190.902857 109.736554 
L 190.902857 109.377267 
L 192.548571 109.377267 
L 192.548571 109.257505 
L 193.371429 109.257505 
L 193.371429 109.137743 
L 195.017143 109.137743 
L 195.017143 108.658693 
L 195.84 108.658693 
L 195.84 108.538931 
L 196.662857 108.538931 
L 196.662857 108.419168 
L 197.485714 108.419168 
L 197.485714 108.179644 
L 199.954286 108.179644 
L 199.954286 107.341307 
L 200.777143 107.341307 
L 200.777143 106.862257 
L 202.422857 106.862257 
L 202.422857 106.742495 
L 203.245714 106.742495 
L 203.245714 105.904158 
L 204.068571 105.904158 
L 204.068571 105.185584 
L 204.891429 105.185584 
L 204.891429 105.065822 
L 205.714286 105.065822 
L 205.714286 104.706535 
L 206.537143 104.706535 
L 206.537143 104.227485 
L 207.36 104.227485 
L 207.36 103.98796 
L 209.005714 103.98796 
L 209.005714 103.628673 
L 210.651429 103.628673 
L 210.651429 103.389149 
L 211.474286 103.389149 
L 211.474286 101.592713 
L 212.297143 101.592713 
L 212.297143 100.634614 
L 213.12 100.634614 
L 213.12 99.556752 
L 213.942857 99.556752 
L 213.942857 99.43699 
L 214.765714 99.43699 
L 214.765714 98.359129 
L 215.588571 98.359129 
L 215.588571 98.239366 
L 216.411429 98.239366 
L 216.411429 96.442931 
L 218.057143 96.442931 
L 218.057143 96.323168 
L 218.88 96.323168 
L 218.88 94.047683 
L 219.702857 94.047683 
L 219.702857 93.568634 
L 222.171429 93.568634 
L 222.171429 93.329109 
L 222.994286 93.329109 
L 222.994286 93.089584 
L 223.817143 93.089584 
L 223.817143 92.969822 
L 224.64 92.969822 
L 224.64 92.490772 
L 225.462857 92.490772 
L 225.462857 91.772198 
L 226.285714 91.772198 
L 226.285714 91.532673 
L 227.108571 91.532673 
L 227.108571 91.412911 
L 227.931429 91.412911 
L 227.931429 91.293149 
L 228.754286 91.293149 
L 228.754286 91.173386 
L 230.4 91.173386 
L 230.4 90.215287 
L 231.222857 90.215287 
L 231.222857 89.736238 
L 232.045714 89.736238 
L 232.045714 88.897901 
L 232.868571 88.897901 
L 232.868571 88.179327 
L 233.691429 88.179327 
L 233.691429 87.460752 
L 234.514286 87.460752 
L 234.514286 86.143366 
L 235.337143 86.143366 
L 235.337143 86.023604 
L 236.16 86.023604 
L 236.16 85.30503 
L 236.982857 85.30503 
L 236.982857 85.065505 
L 237.805714 85.065505 
L 237.805714 84.945743 
L 238.628571 84.945743 
L 238.628571 84.82598 
L 239.451429 84.82598 
L 239.451429 84.346931 
L 240.274286 84.346931 
L 240.274286 84.227168 
L 241.097143 84.227168 
L 241.097143 83.987644 
L 242.742857 83.987644 
L 242.742857 83.508594 
L 243.565714 83.508594 
L 243.565714 82.430733 
L 244.388571 82.430733 
L 244.388571 81.951683 
L 245.211429 81.951683 
L 245.211429 81.233109 
L 246.034286 81.233109 
L 246.034286 81.113347 
L 247.68 81.113347 
L 247.68 80.873822 
L 248.502857 80.873822 
L 248.502857 80.514535 
L 249.325714 80.514535 
L 249.325714 80.155248 
L 250.148571 80.155248 
L 250.148571 78.957624 
L 250.971429 78.957624 
L 250.971429 77.879762 
L 253.44 77.879762 
L 253.44 77.640238 
L 254.262857 77.640238 
L 254.262857 76.682139 
L 255.085714 76.682139 
L 255.085714 76.083327 
L 255.908571 76.083327 
L 255.908571 75.963564 
L 257.554286 75.963564 
L 257.554286 74.765941 
L 258.377143 74.765941 
L 258.377143 74.526416 
L 259.2 74.526416 
L 259.2 74.167129 
L 260.022857 74.167129 
L 260.022857 73.927604 
L 260.845714 73.927604 
L 260.845714 72.849743 
L 262.491429 72.849743 
L 262.491429 72.610218 
L 264.137143 72.610218 
L 264.137143 72.490455 
L 266.605714 72.490455 
L 266.605714 72.250931 
L 267.428571 72.250931 
L 267.428571 72.131168 
L 268.251429 72.131168 
L 268.251429 72.011406 
L 269.897143 72.011406 
L 269.897143 71.771881 
L 270.72 71.771881 
L 270.72 71.652119 
L 271.542857 71.652119 
L 271.542857 71.412594 
L 272.365714 71.412594 
L 272.365714 71.292832 
L 273.188571 71.292832 
L 273.188571 70.933545 
L 274.011429 70.933545 
L 274.011429 70.454495 
L 274.834286 70.454495 
L 274.834286 70.095208 
L 275.657143 70.095208 
L 275.657143 69.855683 
L 277.302857 69.855683 
L 277.302857 69.137109 
L 278.125714 69.137109 
L 278.125714 68.658059 
L 278.948571 68.658059 
L 278.948571 68.418535 
L 281.417143 68.418535 
L 281.417143 68.17901 
L 282.24 68.17901 
L 282.24 67.69996 
L 283.062857 67.69996 
L 283.062857 67.101149 
L 283.885714 67.101149 
L 283.885714 66.502337 
L 285.531429 66.502337 
L 285.531429 66.262812 
L 287.177143 66.262812 
L 287.177143 65.664 
L 288 65.664 
L 288 65.544238 
L 289.645714 65.544238 
L 289.645714 65.424475 
L 291.291429 65.424475 
L 291.291429 64.945426 
L 292.114286 64.945426 
L 292.114286 64.705901 
L 292.937143 64.705901 
L 292.937143 64.586139 
L 293.76 64.586139 
L 293.76 64.466376 
L 295.405714 64.466376 
L 295.405714 64.346614 
L 297.051429 64.346614 
L 297.051429 64.226851 
L 297.874286 64.226851 
L 297.874286 63.268752 
L 298.697143 63.268752 
L 298.697143 63.14899 
L 300.342857 63.14899 
L 300.342857 62.909465 
L 301.165714 62.909465 
L 301.165714 62.669941 
L 302.811429 62.669941 
L 302.811429 62.430416 
L 303.634286 62.430416 
L 303.634286 62.071129 
L 304.457143 62.071129 
L 304.457143 61.711842 
L 305.28 61.711842 
L 305.28 61.232792 
L 308.571429 61.232792 
L 308.571429 61.11303 
L 309.394286 61.11303 
L 309.394286 60.873505 
L 310.217143 60.873505 
L 310.217143 60.035168 
L 311.04 60.035168 
L 311.04 59.915406 
L 311.862857 59.915406 
L 311.862857 57.759683 
L 312.685714 57.759683 
L 312.685714 57.639921 
L 315.977143 57.639921 
L 315.977143 57.520158 
L 316.8 57.520158 
L 316.8 57.280634 
L 317.622857 57.280634 
L 317.622857 57.041109 
L 319.268571 57.041109 
L 319.268571 56.442297 
L 321.737143 56.442297 
L 321.737143 56.322535 
L 323.382857 56.322535 
L 323.382857 55.963248 
L 324.205714 55.963248 
L 324.205714 55.723723 
L 327.497143 55.723723 
L 327.497143 55.60396 
L 329.142857 55.60396 
L 329.142857 55.484198 
L 329.965714 55.484198 
L 329.965714 55.005149 
L 331.611429 55.005149 
L 331.611429 54.885386 
L 333.257143 54.885386 
L 333.257143 54.645861 
L 334.08 54.645861 
L 334.08 54.526099 
L 334.902857 54.526099 
L 334.902857 54.166812 
L 336.548571 54.166812 
L 336.548571 54.04705 
L 338.194286 54.04705 
L 338.194286 53.687762 
L 339.017143 53.687762 
L 339.017143 53.448238 
L 339.84 53.448238 
L 339.84 53.208713 
L 340.662857 53.208713 
L 340.662857 52.849426 
L 343.954286 52.849426 
L 343.954286 52.729663 
L 344.777143 52.729663 
L 344.777143 52.490139 
L 348.068571 52.490139 
L 348.068571 52.370376 
L 348.891429 52.370376 
L 348.891429 52.130851 
L 349.714286 52.130851 
L 349.714286 51.771564 
L 350.537143 51.771564 
L 350.537143 51.412277 
L 352.182857 51.412277 
L 352.182857 51.05299 
L 353.828571 51.05299 
L 353.828571 50.933228 
L 355.474286 50.933228 
L 355.474286 50.454178 
L 357.12 50.454178 
L 357.12 50.334416 
L 357.942857 50.334416 
L 357.942857 50.094891 
L 358.765714 50.094891 
L 358.765714 49.855366 
L 360.411429 49.855366 
L 360.411429 49.615842 
L 361.234286 49.615842 
L 361.234286 49.496079 
L 362.057143 49.496079 
L 362.057143 49.376317 
L 363.702857 49.376317 
L 363.702857 48.897267 
L 365.348571 48.897267 
L 365.348571 48.777505 
L 366.171429 48.777505 
L 366.171429 48.657743 
L 367.817143 48.657743 
L 367.817143 48.058931 
L 368.64 48.058931 
L 368.64 47.819406 
L 369.462857 47.819406 
L 369.462857 47.460119 
L 371.931429 47.460119 
L 371.931429 47.340356 
L 372.754286 47.340356 
L 372.754286 47.220594 
L 374.4 47.220594 
L 374.4 46.621782 
L 376.045714 46.621782 
L 376.045714 46.262495 
L 377.691429 46.262495 
L 377.691429 46.142733 
L 379.337143 46.142733 
L 379.337143 45.783446 
L 380.16 45.783446 
L 380.16 45.424158 
L 381.805714 45.424158 
L 381.805714 45.064871 
L 382.628571 45.064871 
L 382.628571 44.945109 
L 385.097143 44.945109 
L 385.097143 44.705584 
L 388.388571 44.705584 
L 388.388571 44.466059 
L 393.325714 44.466059 
L 393.325714 44.346297 
L 395.794286 44.346297 
L 395.794286 44.106772 
L 396.617143 44.106772 
L 396.617143 43.627723 
L 398.262857 43.627723 
L 398.262857 43.388198 
L 399.085714 43.388198 
L 399.085714 43.268436 
L 399.908571 43.268436 
L 399.908571 43.028911 
L 400.731429 43.028911 
L 400.731429 42.789386 
L 401.554286 42.789386 
L 401.554286 42.669624 
L 405.668571 42.669624 
L 405.668571 42.430099 
L 408.137143 42.430099 
L 408.137143 42.190574 
L 408.96 42.190574 
L 408.96 41.95105 
L 410.605714 41.95105 
L 410.605714 41.831287 
L 412.251429 41.831287 
L 412.251429 41.591762 
L 413.897143 41.591762 
L 413.897143 41.472 
L 414.72 41.472 
L 414.72 41.472 
" style="fill:none;stroke:#0000ff;stroke-linecap:square;stroke-width:1.5;"/>
   </g>
   <g id="line2d_26">
    <path clip-path="url(#p3f9e69fa88)" d="M 57.6 307.584 
L 414.72 41.472 
" style="fill:none;stroke:#ff0000;stroke-dasharray:5.55,2.4;stroke-dashoffset:0;stroke-width:1.5;"/>
   </g>
   <g id="patch_3">
    <path d="M 57.6 307.584 
L 57.6 41.472 
" style="fill:none;stroke:#ffffff;stroke-linecap:square;stroke-linejoin:miter;"/>
   </g>
   <g id="patch_4">
    <path d="M 414.72 307.584 
L 414.72 41.472 
" style="fill:none;stroke:#ffffff;stroke-linecap:square;stroke-linejoin:miter;"/>
   </g>
   <g id="patch_5">
    <path d="M 57.6 307.584 
L 414.72 307.584 
" style="fill:none;stroke:#ffffff;stroke-linecap:square;stroke-linejoin:miter;"/>
   </g>
   <g id="patch_6">
    <path d="M 57.6 41.472 
L 414.72 41.472 
" style="fill:none;stroke:#ffffff;stroke-linecap:square;stroke-linejoin:miter;"/>
   </g>
   <g id="text_15">
    <!-- Receiver Operating Characteristic -->
    <defs>
     <path d="M 7.375 73.046875 
Q 7.375 75.59375 9.109375 77.3125 
Q 10.84375 79.046875 13.375 79.046875 
Q 15.96875 79.046875 17.75 77.34375 
Q 19.53125 75.640625 19.53125 73.046875 
Q 19.53125 70.515625 17.75 68.828125 
Q 15.96875 67.140625 13.375 67.140625 
Q 10.796875 67.140625 9.078125 68.828125 
Q 7.375 70.515625 7.375 73.046875 
z
M 8.5 0 
L 8.5 54 
L 18.0625 54 
L 18.0625 0 
z
" id="MicrosoftYaHei-69"/>
     <path d="M 52.046875 54 
L 30.671875 0 
L 21 0 
L 0.6875 54 
L 11.140625 54 
L 24.3125 15.4375 
Q 25.921875 10.796875 26.21875 7.671875 
L 26.46875 7.671875 
Q 26.953125 11.765625 28.171875 15.234375 
L 42 54 
z
" id="MicrosoftYaHei-76"/>
     <path d="M 37.5 44.53125 
Q 35.109375 46.234375 30.90625 46.234375 
Q 25.34375 46.234375 21.71875 41.03125 
Q 18.109375 35.84375 18.109375 27.34375 
L 18.109375 0 
L 8.546875 0 
L 8.546875 54 
L 18.109375 54 
L 18.109375 43.015625 
L 18.3125 43.015625 
Q 22.40625 54.9375 32.46875 54.9375 
Q 35.75 54.9375 37.5 54.203125 
z
" id="MicrosoftYaHei-72"/>
     <path id="MicrosoftYaHei-20"/>
     <path d="M 4.890625 36.921875 
Q 4.890625 55.21875 14.796875 66.0625 
Q 24.703125 76.90625 41.65625 76.90625 
Q 57.421875 76.90625 67.03125 66.3125 
Q 76.65625 55.71875 76.65625 38.71875 
Q 76.65625 20.3125 66.796875 9.515625 
Q 56.9375 -1.265625 40.4375 -1.265625 
Q 24.3125 -1.265625 14.59375 9.328125 
Q 4.890625 19.921875 4.890625 36.921875 
z
M 15.140625 37.703125 
Q 15.140625 23.96875 22.140625 15.6875 
Q 29.15625 7.421875 40.4375 7.421875 
Q 52.546875 7.421875 59.453125 15.359375 
Q 66.359375 23.296875 66.359375 37.546875 
Q 66.359375 52.203125 59.59375 60.15625 
Q 52.828125 68.109375 41.0625 68.109375 
Q 29.5 68.109375 22.3125 59.703125 
Q 15.140625 51.3125 15.140625 37.703125 
z
" id="MicrosoftYaHei-4f"/>
     <path d="M 18.109375 7.625 
L 18.109375 -24.859375 
L 8.546875 -24.859375 
L 8.546875 54 
L 18.109375 54 
L 18.109375 44.671875 
L 18.3125 44.671875 
Q 24.65625 55.28125 36.859375 55.28125 
Q 47.21875 55.28125 53.09375 48.015625 
Q 58.984375 40.765625 58.984375 28.5625 
Q 58.984375 15.09375 52.3125 6.90625 
Q 45.65625 -1.265625 34.375 -1.265625 
Q 23.96875 -1.265625 18.3125 7.625 
z
M 18.0625 22.265625 
Q 18.0625 15.671875 22.3125 11.15625 
Q 26.5625 6.640625 32.953125 6.640625 
Q 40.578125 6.640625 44.875 12.5 
Q 49.171875 18.359375 49.171875 28.71875 
Q 49.171875 37.453125 45.15625 42.40625 
Q 41.15625 47.359375 34.234375 47.359375 
Q 27.15625 47.359375 22.609375 42.328125 
Q 18.0625 37.3125 18.0625 29.4375 
z
" id="MicrosoftYaHei-70"/>
     <path d="M 54.203125 0 
L 44.671875 0 
L 44.671875 30.71875 
Q 44.671875 47.359375 32.515625 47.359375 
Q 26.21875 47.359375 22.15625 42.671875 
Q 18.109375 37.984375 18.109375 30.8125 
L 18.109375 0 
L 8.546875 0 
L 8.546875 54 
L 18.109375 54 
L 18.109375 45.0625 
L 18.3125 45.0625 
Q 24.421875 55.28125 36.03125 55.28125 
Q 44.921875 55.28125 49.5625 49.578125 
Q 54.203125 43.890625 54.203125 33.015625 
z
" id="MicrosoftYaHei-6e"/>
     <path d="M 55.421875 4.546875 
Q 55.421875 -25.4375 26.3125 -25.4375 
Q 16.265625 -25.4375 8.84375 -21.6875 
L 8.84375 -12.453125 
Q 17.875 -17.484375 26.171875 -17.484375 
Q 45.84375 -17.484375 45.84375 3.21875 
L 45.84375 8.9375 
L 45.65625 8.9375 
Q 39.5 -1.265625 27.296875 -1.265625 
Q 17.140625 -1.265625 11.03125 6 
Q 4.9375 13.28125 4.9375 25.296875 
Q 4.9375 39.109375 11.671875 47.1875 
Q 18.40625 55.28125 29.640625 55.28125 
Q 40.4375 55.28125 45.65625 46.6875 
L 45.84375 46.6875 
L 45.84375 54 
L 55.421875 54 
z
M 45.84375 32.125 
Q 45.90625 38.375 41.65625 42.859375 
Q 37.40625 47.359375 31.203125 47.359375 
Q 23.390625 47.359375 19.046875 41.625 
Q 14.703125 35.890625 14.703125 25.875 
Q 14.703125 17.28125 18.890625 11.953125 
Q 23.09375 6.640625 30.03125 6.640625 
Q 37.015625 6.640625 41.453125 11.71875 
Q 45.90625 16.796875 45.84375 24.609375 
z
" id="MicrosoftYaHei-67"/>
     <path d="M 61.53125 3.125 
Q 53.171875 -1.265625 40.578125 -1.265625 
Q 24.3125 -1.265625 14.59375 9.0625 
Q 4.890625 19.390625 4.890625 36.375 
Q 4.890625 54.640625 15.828125 65.765625 
Q 26.765625 76.90625 43.609375 76.90625 
Q 54.4375 76.90625 61.53125 73.828125 
L 61.53125 63.625 
Q 53.421875 68.109375 43.703125 68.109375 
Q 31.0625 68.109375 23.09375 59.6875 
Q 15.140625 51.265625 15.140625 36.96875 
Q 15.140625 23.390625 22.5625 15.40625 
Q 29.984375 7.421875 42 7.421875 
Q 53.21875 7.421875 61.53125 12.5 
z
" id="MicrosoftYaHei-43"/>
     <path d="M 54.15625 0 
L 44.625 0 
L 44.625 31.0625 
Q 44.625 47.359375 32.515625 47.359375 
Q 26.3125 47.359375 22.203125 42.59375 
Q 18.109375 37.84375 18.109375 30.609375 
L 18.109375 0 
L 8.546875 0 
L 8.546875 79.9375 
L 18.109375 79.9375 
L 18.109375 45.125 
L 18.3125 45.125 
Q 24.515625 55.28125 35.9375 55.28125 
Q 54.15625 55.28125 54.15625 33.25 
z
" id="MicrosoftYaHei-68"/>
     <path d="M 5.515625 11.671875 
Q 12.75 6.453125 21.09375 6.453125 
Q 32.28125 6.453125 32.28125 13.765625 
Q 32.28125 16.890625 29.828125 18.921875 
Q 27.390625 20.953125 19.921875 23.734375 
Q 10.9375 27.34375 8.25 30.875 
Q 5.5625 34.421875 5.5625 39.453125 
Q 5.5625 46.625 11.640625 50.953125 
Q 17.71875 55.28125 26.609375 55.28125 
Q 33.5 55.28125 39.40625 52.875 
L 39.40625 43.65625 
Q 33.34375 47.5625 25.6875 47.5625 
Q 21.09375 47.5625 18.203125 45.5625 
Q 15.328125 43.5625 15.328125 40.28125 
Q 15.328125 37.0625 17.40625 35.25 
Q 19.484375 33.453125 26.609375 30.609375 
Q 35.640625 27.25 38.8125 23.625 
Q 42 20.015625 42 14.703125 
Q 42 7.28125 35.90625 3 
Q 29.828125 -1.265625 20.171875 -1.265625 
Q 11.765625 -1.265625 5.515625 1.90625 
z
" id="MicrosoftYaHei-73"/>
    </defs>
    <g transform="translate(121.426875 35.472)scale(0.144 -0.144)">
     <use xlink:href="#MicrosoftYaHei-52"/>
     <use x="65.236328" xlink:href="#MicrosoftYaHei-65"/>
     <use x="121.974609" xlink:href="#MicrosoftYaHei-63"/>
     <use x="172.121094" xlink:href="#MicrosoftYaHei-65"/>
     <use x="228.859375" xlink:href="#MicrosoftYaHei-69"/>
     <use x="255.470703" xlink:href="#MicrosoftYaHei-76"/>
     <use x="307.960938" xlink:href="#MicrosoftYaHei-65"/>
     <use x="364.699219" xlink:href="#MicrosoftYaHei-72"/>
     <use x="402.882812" xlink:href="#MicrosoftYaHei-20"/>
     <use x="432.472656" xlink:href="#MicrosoftYaHei-4f"/>
     <use x="513.966797" xlink:href="#MicrosoftYaHei-70"/>
     <use x="577.833984" xlink:href="#MicrosoftYaHei-65"/>
     <use x="634.572266" xlink:href="#MicrosoftYaHei-72"/>
     <use x="672.755859" xlink:href="#MicrosoftYaHei-61"/>
     <use x="728.029297" xlink:href="#MicrosoftYaHei-74"/>
     <use x="765.285156" xlink:href="#MicrosoftYaHei-69"/>
     <use x="791.896484" xlink:href="#MicrosoftYaHei-6e"/>
     <use x="853.517578" xlink:href="#MicrosoftYaHei-67"/>
     <use x="917.482422" xlink:href="#MicrosoftYaHei-20"/>
     <use x="947.072266" xlink:href="#MicrosoftYaHei-43"/>
     <use x="1013.966797" xlink:href="#MicrosoftYaHei-68"/>
     <use x="1075.539062" xlink:href="#MicrosoftYaHei-61"/>
     <use x="1130.8125" xlink:href="#MicrosoftYaHei-72"/>
     <use x="1168.996094" xlink:href="#MicrosoftYaHei-61"/>
     <use x="1224.269531" xlink:href="#MicrosoftYaHei-63"/>
     <use x="1274.416016" xlink:href="#MicrosoftYaHei-74"/>
     <use x="1311.671875" xlink:href="#MicrosoftYaHei-65"/>
     <use x="1368.410156" xlink:href="#MicrosoftYaHei-72"/>
     <use x="1406.59375" xlink:href="#MicrosoftYaHei-69"/>
     <use x="1433.205078" xlink:href="#MicrosoftYaHei-73"/>
     <use x="1479.494141" xlink:href="#MicrosoftYaHei-74"/>
     <use x="1516.75" xlink:href="#MicrosoftYaHei-69"/>
     <use x="1543.361328" xlink:href="#MicrosoftYaHei-63"/>
    </g>
   </g>
   <g id="legend_1">
    <g id="patch_7">
     <path d="M 321.195 302.584 
L 407.72 302.584 
Q 409.72 302.584 409.72 300.584 
L 409.72 286.104312 
Q 409.72 284.104312 407.72 284.104312 
L 321.195 284.104312 
Q 319.195 284.104312 319.195 286.104312 
L 319.195 300.584 
Q 319.195 302.584 321.195 302.584 
z
" style="fill:#e5e5e5;opacity:0.8;stroke:#cccccc;stroke-linejoin:miter;stroke-width:0.5;"/>
    </g>
    <g id="line2d_27">
     <path d="M 323.195 292.598062 
L 343.195 292.598062 
" style="fill:none;stroke:#0000ff;stroke-linecap:square;stroke-width:1.5;"/>
    </g>
    <g id="line2d_28"/>
    <g id="text_16">
     <!-- AUC = 0.76 -->
     <defs>
      <path d="M 69.1875 0 
L 58.40625 0 
L 50.6875 20.703125 
L 19.1875 20.703125 
L 11.921875 0 
L 1.125 0 
L 29.9375 75.640625 
L 40.375 75.640625 
z
M 47.65625 29.25 
L 36.234375 60.6875 
Q 35.6875 62.203125 35.0625 65.96875 
L 34.8125 65.96875 
Q 34.28125 62.546875 33.59375 60.6875 
L 22.265625 29.25 
z
" id="MicrosoftYaHei-41"/>
      <path d="M 65.828125 30.8125 
Q 65.828125 -1.265625 36.71875 -1.265625 
Q 8.84375 -1.265625 8.84375 29.6875 
L 8.84375 75.640625 
L 18.609375 75.640625 
L 18.609375 30.125 
Q 18.609375 7.421875 37.640625 7.421875 
Q 56.0625 7.421875 56.0625 29.390625 
L 56.0625 75.640625 
L 65.828125 75.640625 
z
" id="MicrosoftYaHei-55"/>
      <path d="M 62.0625 39.015625 
L 12.3125 39.015625 
L 12.3125 46.390625 
L 62.0625 46.390625 
z
M 62.0625 16.453125 
L 12.3125 16.453125 
L 12.3125 23.828125 
L 62.0625 23.828125 
z
" id="MicrosoftYaHei-3d"/>
      <path d="M 53.765625 72.3125 
L 24.171875 0 
L 14.265625 0 
L 42.390625 67.1875 
L 4.59375 67.1875 
L 4.59375 75.640625 
L 53.765625 75.640625 
z
" id="MicrosoftYaHei-37"/>
     </defs>
     <g transform="translate(351.195 296.098062)scale(0.1 -0.1)">
      <use xlink:href="#MicrosoftYaHei-41"/>
      <use x="70.345703" xlink:href="#MicrosoftYaHei-55"/>
      <use x="145.003906" xlink:href="#MicrosoftYaHei-43"/>
      <use x="211.898438" xlink:href="#MicrosoftYaHei-20"/>
      <use x="241.488281" xlink:href="#MicrosoftYaHei-3d"/>
      <use x="315.658203" xlink:href="#MicrosoftYaHei-20"/>
      <use x="345.248047" xlink:href="#MicrosoftYaHei-30"/>
      <use x="403.890625" xlink:href="#MicrosoftYaHei-2e"/>
      <use x="427.962891" xlink:href="#MicrosoftYaHei-37"/>
      <use x="486.605469" xlink:href="#MicrosoftYaHei-36"/>
     </g>
    </g>
   </g>
  </g>
 </g>
 <defs>
  <clipPath id="p3f9e69fa88">
   <rect height="266.112" width="357.12" x="57.6" y="41.472"/>
  </clipPath>
 </defs>
</svg>
